<svg id="Lag_1" data-name="Lag 1" xmlns="http://www.w3.org/2000/svg" viewBox="0 0 300 300"><defs><style>.dacls-1{fill:#3c65a7;}.dacls-2{fill:#fff;}</style></defs><rect class="dacls-1" width="300" height="300"/><path class="dacls-2" d="M228.57,50.39H71.43A21.42,21.42,0,0,0,50,71.82V229a21.43,21.43,0,0,0,21.43,21.43H132.7v-68H104.58v-32H132.7V126c0-27.75,16.52-43.08,41.82-43.08a170.42,170.42,0,0,1,24.78,2.16v27.24h-14c-13.75,0-18,8.53-18,17.29v20.78H198l-4.91,32H167.3v68h61.27A21.43,21.43,0,0,0,250,229V71.82A21.42,21.42,0,0,0,228.57,50.39Z" transform="translate(-0.21 -0.39)"/></svg>