<svg id="Lag_1" data-name="Lag 1" xmlns="http://www.w3.org/2000/svg" viewBox="0 0 300 300"><defs><style>.decls-1{fill:#e61576;}.decls-2{fill:#fff;}</style></defs><rect class="decls-1" width="300" height="300"/><path class="decls-2" d="M150.21,68.41c26.7,0,29.86.1,40.41.58,9.75.44,15,2.07,18.57,3.44a33.1,33.1,0,0,1,19,19c1.37,3.52,3,8.82,3.44,18.57.48,10.54.58,13.71.58,40.41s-.1,29.86-.58,40.41c-.45,9.75-2.07,15-3.44,18.57a33.12,33.12,0,0,1-19,19c-3.53,1.37-8.82,3-18.57,3.45-10.54.48-13.71.58-40.41.58s-29.86-.1-40.41-.58c-9.75-.45-15-2.08-18.57-3.45a33.2,33.2,0,0,1-19-19c-1.36-3.53-3-8.82-3.44-18.57-.48-10.55-.58-13.71-.58-40.41s.1-29.87.58-40.41c.45-9.75,2.08-15,3.44-18.57a33.18,33.18,0,0,1,19-19c3.53-1.37,8.82-3,18.57-3.44,10.55-.48,13.71-.58,40.41-.58m0-18c-27.16,0-30.56.11-41.23.6s-17.91,2.18-24.27,4.65A51.08,51.08,0,0,0,55.46,84.88C53,91.25,51.3,98.51,50.81,109.16s-.6,14.07-.6,41.23.12,30.56.6,41.23,2.18,17.91,4.65,24.27a51.13,51.13,0,0,0,29.25,29.25c6.36,2.47,13.63,4.16,24.27,4.65s14.07.6,41.23.6,30.56-.12,41.23-.6,17.91-2.18,24.27-4.65A51.13,51.13,0,0,0,245,215.89c2.47-6.36,4.16-13.63,4.65-24.27s.6-14.07.6-41.23-.11-30.57-.6-41.23S247.43,91.25,245,84.88a51.08,51.08,0,0,0-29.25-29.24c-6.36-2.47-13.63-4.16-24.27-4.65s-14.07-.6-41.23-.6Z" transform="translate(-0.21 -0.39)"/><path class="decls-2" d="M150.21,99a51.35,51.35,0,1,0,51.35,51.35A51.35,51.35,0,0,0,150.21,99Zm0,84.68a33.34,33.34,0,1,1,33.33-33.33A33.33,33.33,0,0,1,150.21,183.72Z" transform="translate(-0.21 -0.39)"/><circle class="decls-2" cx="203.38" cy="96.62" r="12"/></svg>