<svg id="Lag_1" data-name="Lag 1" xmlns="http://www.w3.org/2000/svg" viewBox="0 0 300 300"><defs><style>.ducls-1{fill:#d83535;}.ducls-2{fill:none;stroke:#1d1d1b;stroke-miterlimit:10;stroke-width:5px;}.ducls-3{fill:#fff;}</style></defs><rect class="ducls-1" width="300" height="300"/><path class="ducls-2" d="M457.87,236.65" transform="translate(-0.21 -0.39)"/><path class="ducls-3" d="M231.46,79.89H69A18.75,18.75,0,0,0,50.21,98.64v112.5A18.75,18.75,0,0,0,69,229.89h162.5a18.74,18.74,0,0,0,18.75-18.75V98.64A18.74,18.74,0,0,0,231.46,79.89Zm0,18.75v15.94c-8.76,7.13-22.72,18.22-52.57,41.6-6.58,5.17-19.61,17.6-28.68,17.46-9.07.14-22.1-12.29-28.68-17.46C91.69,132.81,77.72,121.71,69,114.58V98.64ZM69,211.14v-72.5c9,7.13,21.64,17.13,41,32.28,8.54,6.72,23.49,21.56,40.26,21.47,16.69.09,31.45-14.53,40.26-21.46,19.34-15.15,32-25.16,41-32.29v72.5Z" transform="translate(-0.21 -0.39)"/></svg>