<svg id="Lag_1" data-name="Lag 1" xmlns="http://www.w3.org/2000/svg" viewBox="0 0 300 300"><defs><style>.docls-1{fill:#369e77;}.docls-2{fill:#fff;}</style></defs><rect class="docls-1" width="300" height="300"/><path class="docls-2" d="M94.31,238.67a9.41,9.41,0,0,0,3.22,11.54l34.05,23.39a9.28,9.28,0,0,0,11.54-.81,179.57,179.57,0,0,0,11-253.73,9.3,9.3,0,0,0-11.43-1.81L106.77,37.61a9.35,9.35,0,0,0-4.21,11.15l15.6,44.51a9.26,9.26,0,0,0,9.29,6.18l30.26-1.69a143.43,143.43,0,0,1-4.21,96.89l-30-4.32a9.29,9.29,0,0,0-9.79,5.36l-19.4,43Z" transform="translate(-0.21 -0.39)"/></svg>