<svg id="Lag_1" data-name="Lag 1" xmlns="http://www.w3.org/2000/svg" viewBox="0 0 323 394.64"><defs><style>.cls-1{fill:#1d1d1b;}.cls-2{font-size:27.29px;}.cls-2,.cls-3,.cls-4{fill:#fff;}.cls-2,.cls-3{font-family:Montserrat-SemiBold, Montserrat;font-weight:600;}.cls-3{font-size:28px;}.cls-4{font-size:48px;font-family:Montserrat-Bold, Montserrat;font-weight:700;}</style></defs><circle class="cls-1" cx="150.22" cy="192.08" r="150.22"/><text class="cls-2" transform="translate(31.6 152.73) rotate(-64.67)">R</text><text class="cls-2" transform="translate(39.91 135.29) rotate(-56.69)">e</text><text class="cls-2" transform="translate(49.07 121.56) rotate(-50.45)">t</text><text class="cls-2" transform="matrix(0.7, -0.71, 0.71, 0.7, 56.16, 112.96)">r</text><text class="cls-2" transform="translate(63.55 105.16) rotate(-39.19)">o</text><text class="cls-2" transform="matrix(0.83, -0.56, 0.56, 0.83, 76.98, 94.5)"> </text><text class="cls-2" transform="translate(82.96 90.43) rotate(-29.82)">-</text><text class="cls-2" transform="translate(91.82 85.4) rotate(-25.92)"> </text><text class="cls-2" transform="translate(98.03 82) rotate(-20.01)">V</text><text class="cls-2" transform="translate(116.13 75.7) rotate(-14.12)">i</text><text class="cls-2" transform="translate(123.28 73.6) rotate(-8.36)">n</text><text class="cls-2" transform="translate(141.29 71.13) rotate(-1.77)">t</text><text class="cls-2" transform="translate(152.38 70.63) rotate(4.38)">a</text><text class="cls-2" transform="translate(168.44 71.74) rotate(12.2)">g</text><text class="cls-2" transform="translate(186.38 75.65) rotate(20)">e</text><text class="cls-2" transform="matrix(0.9, 0.43, -0.43, 0.9, 201.86, 81.5)"> </text><text class="cls-2" transform="translate(208.41 84.51) rotate(29.11)">-</text><text class="cls-2" transform="matrix(0.84, 0.55, -0.55, 0.84, 217.31, 89.52)"> </text><text class="cls-2" transform="translate(223.45 92.96) rotate(39.59)">D</text><text class="cls-2" transform="translate(240.22 107.04) rotate(48.24)">e</text><text class="cls-2" transform="translate(251.13 119.35) rotate(55)">s</text><text class="cls-2" transform="translate(258.88 130.61) rotate(59.76)">i</text><text class="cls-2" transform="translate(262.89 136.89) rotate(65.55)">g</text><text class="cls-2" transform="translate(270.5 153.54) rotate(73.67)">n</text><text class="cls-3" transform="matrix(0.72, 0.69, -0.69, 0.72, 54.43, 289.08)">F</text><text class="cls-3" transform="matrix(0.8, 0.6, -0.6, 0.8, 68.37, 302.1)">r</text><text class="cls-3" transform="translate(78.71 309.94) rotate(29.79)">e</text><text class="cls-3" transform="translate(95.54 319.48) rotate(20.88)">d</text><text class="cls-3" transform="matrix(0.98, 0.21, -0.21, 0.98, 115.37, 326.82)">e</text><text class="cls-3" transform="translate(133.91 330.5) rotate(5.04)">r</text><text class="cls-3" transform="translate(146.49 331.5) rotate(0.34)">i</text><text class="cls-3" transform="translate(155.94 331.75) rotate(-5.91)">k</text><text class="cls-3" transform="translate(174.81 329.6) rotate(-13.51)">s</text><text class="cls-3" transform="translate(190.54 325.87) rotate(-21.68)">h</text><text class="cls-3" transform="translate(210.05 317.86) rotate(-30.5)">a</text><text class="cls-3" transform="translate(226.09 308.39) rotate(-39.29)">v</text><text class="cls-3" transform="matrix(0.68, -0.73, 0.73, 0.68, 239.94, 297.25)">n</text><text class="cls-4" transform="matrix(0.71, -0.7, 0.7, 0.71, 55.8, 232.56)">S</text><text class="cls-4" transform="translate(76.25 212.2) rotate(-31.21)">L</text><text class="cls-4" transform="translate(100.06 198.32) rotate(-21.06)">I</text><text class="cls-4" transform="translate(112.8 191.82) rotate(-8.46)">D</text><text class="cls-4" transform="translate(149.54 186.69) rotate(6.84)">T</text><text class="cls-4" transform="translate(176.12 190.32) rotate(15.71)">.</text><text class="cls-4" transform="translate(187.24 191.83) rotate(27.58)">D</text><text class="cls-4" transform="translate(220.48 209.19) rotate(44.53)">K</text></svg>